<svg class="node-white-svg" width="796" height="760" viewBox="0 0 796 760" xmlns="http://www.w3.org/2000/svg"><path d="M329.626 521.412a4 4 0 01.2 7.995l-.2.005H258.47L30.98 758.151a4 4 0 01-5.497.165l-.16-.15a4 4 0 01-.166-5.497l.15-.16 228.664-229.919a4 4 0 012.609-1.173l.227-.006h72.82zm172 54.588a4 4 0 013.995 3.8l.005.2v105.329l57.282 57.289a4 4 0 01.15 5.498l-.15.159a4 4 0 01-5.498.15l-.16-.15-58.452-58.461a4 4 0 01-1.165-2.602l-.007-.227V580a4 4 0 014-4zm157.447-103.12l.23.006a4 4 0 012.637 1.204l61.916 63.663a15.932 15.932 0 017.288-1.753c8.837 0 16 7.163 16 16s-7.163 16-16 16-16-7.163-16-16c0-3.307 1.003-6.38 2.722-8.93l-60.483-62.19h-82.35l-.2-.006a4 4 0 01.2-7.995h84.04zM731.144 544a8 8 0 100 16 8 8 0 000-16zM349.629 407.835a4 4 0 01.2 7.995l-.2.005h-59.834L169.416 534.891a4 4 0 01-2.588 1.15l-.225.006H94.627C92.835 542.925 86.582 548 79.144 548c-8.837 0-16-7.163-16-16s7.163-16 16-16c7.473 0 13.749 5.123 15.508 12.048h70.307l120.38-119.057a4 4 0 012.588-1.15l.225-.006h61.477zM79.144 524a8 8 0 100 16 8 8 0 000-16zm715.024-326.973a4 4 0 01.44 5.481l-.142.168L663.79 347.898a4 4 0 01-2.747 1.318l-.226.007h-85.784a4 4 0 01-.2-7.996l.2-.004h84.001l129.485-143.899a4 4 0 015.649-.297zM16.144 172c7.455 0 13.72 5.099 15.496 12h215.829l.227.006a4 4 0 012.602 1.166l111.605 111.63.151.16a4 4 0 01-.151 5.497l-.16.151a4 4 0 01-5.497-.152L245.813 192 31.64 192c-1.776 6.901-8.04 12-15.496 12-8.837 0-16-7.163-16-16s7.163-16 16-16zm316.152-39.132l.159.151 58.453 58.46a4 4 0 011.165 2.602l.006.227v53.608a4 4 0 01-7.995.2l-.005-.2v-51.952l-57.281-57.289a4 4 0 01-.15-5.497l.15-.16a4 4 0 015.498-.15zM615.94 1.302a4 4 0 01.114 5.498l-.152.159-154.92 152.838v77.191a4 4 0 01-3.8 3.995l-.2.005a4 4 0 01-3.994-3.8l-.005-.2v-78.863a4 4 0 011.032-2.682l.159-.166L610.285 1.264a4 4 0 015.656.038zM16.144 180a8 8 0 108 8v.021V188v-.024a8 8 0 00-8-7.976z" fill="#FFF" fill-rule="nonzero"></path></svg>